<svg width="48" height="48" viewBox="0 0 48 48" fill="none" xmlns="http://www.w3.org/2000/svg">
<path d="M36 44C34.3333 44 32.9167 43.4167 31.75 42.25C30.5833 41.0833 30 39.6667 30 38C30 37.7667 30.0167 37.5247 30.05 37.274C30.0833 37.0233 30.1333 36.7987 30.2 36.6L16.1 28.4C15.5333 28.9 14.9 29.292 14.2 29.576C13.5 29.86 12.7667 30.0013 12 30C10.3333 30 8.91667 29.4167 7.75 28.25C6.58333 27.0833 6 25.6667 6 24C6 22.3333 6.58333 20.9167 7.75 19.75C8.91667 18.5833 10.3333 18 12 18C12.7667 18 13.5 18.142 14.2 18.426C14.9 18.71 15.5333 19.1013 16.1 19.6L30.2 11.4C30.1333 11.2 30.0833 10.9753 30.05 10.726C30.0167 10.4767 30 10.2347 30 10C30 8.33333 30.5833 6.91667 31.75 5.75C32.9167 4.58333 34.3333 4 36 4C37.6667 4 39.0833 4.58333 40.25 5.75C41.4167 6.91667 42 8.33333 42 10C42 11.6667 41.4167 13.0833 40.25 14.25C39.0833 15.4167 37.6667 16 36 16C35.2333 16 34.5 15.8587 33.8 15.576C33.1 15.2933 32.4667 14.9013 31.9 14.4L17.8 22.6C17.8667 22.8 17.9167 23.0253 17.95 23.276C17.9833 23.5267 18 23.768 18 24C18 24.2333 17.9833 24.4753 17.95 24.726C17.9167 24.9767 17.8667 25.2013 17.8 25.4L31.9 33.6C32.4667 33.1 33.1 32.7087 33.8 32.426C34.5 32.1433 35.2333 32.0013 36 32C37.6667 32 39.0833 32.5833 40.25 33.75C41.4167 34.9167 42 36.3333 42 38C42 39.6667 41.4167 41.0833 40.25 42.25C39.0833 43.4167 37.6667 44 36 44Z" fill="#37352F"/>
</svg>
